<svg xmlns="http://www.w3.org/2000/svg" width="1000" height="620" viewBox="0 0 1000 620"><rect width="1000" height="620" rx="28" fill="#eef6fd"/><path d="M55 118H945M55 242H945M55 366H945M55 490H945" stroke="#d3e3f1" stroke-width="22"/><path d="M170 55V565M420 55V565M690 55V565" stroke="#d3e3f1" stroke-width="22"/><polyline points="170,180 420,180 420,366 690,366" fill="none" stroke="#1769d2" stroke-width="18" stroke-linecap="round" stroke-linejoin="round"/><g fill="#1769d2"><path d="M283 166l24 14-24 14z"/><path d="M408 259l24 14-24 14z"/><path d="M543 352l24 14-24 14z"/></g><g transform="translate(170 180)"><circle r="24" fill="#1769d2" stroke="#1769d2" stroke-width="4"/><text text-anchor="middle" y="8" font-size="22" font-weight="800" fill="#fff">1</text><text x="38" y="7" font-size="24" font-weight="800" fill="#123b66">ドルフィン鍼灸院</text></g><g transform="translate(420 180)"><circle r="24" fill="#fff" stroke="#1769d2" stroke-width="4"/><text text-anchor="middle" y="8" font-size="22" font-weight="800" fill="#1769d2">2</text><text x="38" y="7" font-size="24" font-weight="800" fill="#123b66">五丁目住宅付近</text></g><g transform="translate(420 366)"><circle r="24" fill="#fff" stroke="#1769d2" stroke-width="4"/><text text-anchor="middle" y="8" font-size="22" font-weight="800" fill="#1769d2">3</text><text x="38" y="7" font-size="24" font-weight="800" fill="#123b66">奥戸四丁目側へ</text></g><g transform="translate(690 366)"><circle r="24" fill="#0c9b79" stroke="#1769d2" stroke-width="4"/><text text-anchor="middle" y="8" font-size="22" font-weight="800" fill="#fff">4</text><text x="38" y="7" font-size="24" font-weight="800" fill="#123b66">奥戸3丁目バス停</text></g><rect x="55" y="520" width="890" height="66" rx="18" fill="#fff"/><text x="80" y="560" font-size="23" font-weight="700" fill="#365a74">奥戸3丁目バス停　徒歩約5分　青い矢印を目印に進む</text></svg>